<svg width="56" height="56" viewBox="0 0 56 56" fill="none" xmlns="http://www.w3.org/2000/svg">
<rect width="56" height="56" fill="#FCB8E9"/>
<path d="M15.68 20.392C17.536 20.264 19.176 20.2 20.6 20.2C24.552 20.2 26.528 21.52 26.528 24.16C26.528 25.152 26.24 26.008 25.664 26.728C25.088 27.432 24.168 27.912 22.904 28.168C24.12 28.312 25.08 28.68 25.784 29.272C26.488 29.864 26.84 30.896 26.84 32.368C26.84 35.456 24.864 37 20.912 37H15.68V20.392ZM17.672 36.76H20.912C22.336 36.76 23.344 36.392 23.936 35.656C24.544 34.904 24.848 33.76 24.848 32.224C24.848 30.688 24.544 29.664 23.936 29.152C23.328 28.64 22.424 28.368 21.224 28.336H17.672V36.76ZM20.6 20.44C19.672 20.44 18.696 20.496 17.672 20.608V28.096H21.224C23.48 28 24.608 26.704 24.608 24.208C24.608 22.992 24.272 22.064 23.6 21.424C22.928 20.768 21.928 20.44 20.6 20.44ZM29.5595 37H29.2475V20.2H30.0635L40.0475 35.728V20.2H40.3595V37H38.6075L29.5595 23.08V37Z" fill="#FF49C1"/>
</svg>
